<svg version="1.1" id="bg" xmlns="http://www.w3.org/2000/svg" xmlns:xlink="http://www.w3.org/1999/xlink" x="0px" y="0px"
	 viewBox="0 0 136 495" style="enable-background:new 0 0 136 495;" xml:space="preserve">
<g>
	<path style="fill: #fff;" d="M0,463.3v30.8c5.3-1.5,9.7-5.6,11.2-11.3C13.5,474.4,8.4,465.7,0,463.3z"/>
	<path style="fill: #fff;" d="M125.4,0.1H0v463.2c8.5,2.2,17.2-2.8,19.5-11.3c2.3-8.5-2.8-17.3-11.3-19.6c8.5,2.3,17.3-2.8,19.6-11.3
		s-2.8-17.3-11.3-19.6c8.5,2.3,17.3-2.8,19.6-11.3s-2.8-17.3-11.3-19.6c8.5,2.3,17.3-2.8,19.6-11.3s-2.8-17.3-11.3-19.6
		c8.5,2.3,17.3-2.8,19.6-11.3s-2.8-17.3-11.3-19.6c8.5,2.3,17.3-2.8,19.6-11.3s-2.8-17.3-11.3-19.6c8.5,2.3,17.3-2.8,19.6-11.3
		S66.5,249.3,58,247c8.5,2.3,17.3-2.8,19.6-11.3s-2.8-17.3-11.3-19.6c8.5,2.3,17.3-2.8,19.6-11.3s-2.8-17.3-11.3-19.6
		c8.5,2.3,17.3-2.8,19.6-11.3s-2.8-17.3-11.3-19.6c8.5,2.3,17.3-2.8,19.6-11.3s-2.8-17.3-11.3-19.6c8.5,2.3,17.3-2.8,19.6-11.3
		S108,94.8,99.5,92.5c8.5,2.3,17.3-2.8,19.6-11.3s-2.8-17.3-11.3-19.6c8.5,2.3,17.3-2.8,19.6-11.3c2.3-8.5-2.8-17.3-11.3-19.6
		c8.5,2.3,17.3-2.8,19.6-11.3C137.9,11.2,133.3,2.8,125.4,0.1z"/>
</g>
</svg>