<?xml version="1.0" encoding="utf-8"?>
<!-- Generator: Adobe Illustrator 25.0.1, SVG Export Plug-In . SVG Version: 6.00 Build 0)  -->
<svg version="1.1" id="bg" xmlns="http://www.w3.org/2000/svg" xmlns:xlink="http://www.w3.org/1999/xlink" x="0px" y="0px"
	 viewBox="0 0 860 495" style="enable-background:new 0 0 860 495;" xml:space="preserve">
<style type="text/css">
	.st0{fill:#FFFFFF;}
</style>
<path class="st0" d="M0,495h717.8c-0.7-0.3-1.4-0.6-2.2-0.8c8.5,2.3,17.3-2.8,19.6-11.3s-2.8-17.3-11.3-19.6
	c8.5,2.3,17.3-2.8,19.6-11.3c2.3-8.5-2.8-17.3-11.3-19.6c8.5,2.3,17.3-2.8,19.6-11.3c2.3-8.5-2.8-17.3-11.3-19.6
	c8.5,2.3,17.3-2.8,19.6-11.3s-2.8-17.3-11.3-19.6c8.5,2.3,17.3-2.8,19.6-11.3c2.3-8.5-2.8-17.3-11.3-19.6
	c8.5,2.3,17.3-2.8,19.6-11.3c2.3-8.5-2.8-17.3-11.3-19.6c8.5,2.3,17.3-2.8,19.6-11.3s-2.8-17.3-11.3-19.6
	c8.5,2.3,17.3-2.8,19.6-11.3s-2.8-17.3-11.3-19.6c8.5,2.3,17.3-2.8,19.6-11.3c2.3-8.5-2.8-17.3-11.3-19.6
	c8.5,2.3,17.3-2.8,19.6-11.3c2.3-8.5-2.8-17.3-11.3-19.6c8.5,2.3,17.3-2.8,19.6-11.3s-2.8-17.3-11.3-19.6
	c8.5,2.3,17.3-2.8,19.6-11.3c2.3-8.5-2.8-17.3-11.3-19.6c8.5,2.3,17.3-2.8,19.6-11.3c2.3-8.5-2.8-17.3-11.3-19.6
	c8.5,2.3,17.3-2.8,19.6-11.3s-2.8-17.3-11.3-19.6c8.5,2.3,17.3-2.8,19.6-11.3c2.3-8.5-2.8-17.3-11.3-19.6
	c8.5,2.3,17.3-2.8,19.6-11.3c2.2-8.2-2.4-16.6-10.3-19.3H0V495z"/>
</svg>
